<?xml version="1.0" encoding="iso-8859-1"?>
<!-- Generator: Adobe Illustrator 19.0.0, SVG Export Plug-In . SVG Version: 6.00 Build 0)  -->
<svg version="1.1" id="Layer_1" xmlns="http://www.w3.org/2000/svg" xmlns:xlink="http://www.w3.org/1999/xlink" x="0px" y="0px"
	 viewBox="0 0 512 512" style="enable-background:new 0 0 512 512;" xml:space="preserve">
<g>
	<g>
		<path d="M85.333,320v128h149.333V320H85.333z M213.333,416c0,6.4-4.267,10.667-10.667,10.667h-85.333
			c-6.4,0-10.667-4.267-10.667-10.667v-64c0-4.267,2.133-8.533,6.4-10.667c4.267-2.133,8.533,0,10.667,2.133
			c8.533,8.533,21.333,19.2,36.267,19.2s27.733-10.667,36.267-19.2c2.133-2.133,8.533-4.267,10.667-2.133
			c4.267,2.133,6.4,6.4,6.4,10.667V416z"/>
	</g>
</g>
<g>
	<g>
		<path d="M160,384c-12.8,0-23.467-4.267-32-10.667v32h64v-32C183.467,379.733,172.8,384,160,384z"/>
	</g>
</g>
<g>
	<g>
		<polygon points="117.333,102.4 98.133,149.333 136.533,149.333 		"/>
	</g>
</g>
<g>
	<g>
		<path d="M458.667,0H53.333C23.467,0,0,23.467,0,53.333v181.333h512V53.333C512,23.467,488.533,0,458.667,0z M164.267,192
			c-2.133,0-2.133,0-4.267,0c-4.267,0-8.533-2.133-10.667-6.4l-6.4-14.934H89.6l-6.4,14.934c-2.133,6.4-8.533,8.533-12.8,6.4
			c-6.4-2.133-8.533-8.533-6.4-12.8l42.667-106.667c4.267-8.533,17.066-8.533,19.2,0L168.534,179.2
			C172.8,183.467,168.533,189.867,164.267,192z M288,85.333h-32v96c0,6.4-4.267,10.667-10.667,10.667
			c-6.4,0-10.667-4.267-10.667-10.667v-96h-32c-6.4,0-10.667-4.267-10.667-10.667S196.267,64,202.667,64H288
			c6.4,0,10.667,4.267,10.667,10.667S294.4,85.333,288,85.333z M448,181.333c0,6.4-4.267,10.667-10.667,10.667
			c-6.4,0-10.667-4.267-10.667-10.667V108.8L403.2,142.934c-4.267,6.4-12.8,6.4-17.066,0L362.667,108.8v70.4
			c0,6.4-4.267,10.667-10.667,10.667c-6.4,0-10.667-4.267-10.667-10.667V72.533c0-4.267,2.133-8.533,8.533-10.667
			c4.267-2.133,8.533,0,12.8,4.267l34.133,51.2l34.133-51.2c2.133-4.267,8.533-6.4,12.8-4.267c4.267,2.133,8.533,6.4,8.533,10.667
			L448,181.333z"/>
	</g>
</g>
<g>
	<g>
		<path d="M0,256v202.667C0,488.533,23.467,512,53.333,512h405.333C488.533,512,512,488.533,512,458.667V256H0z M266.667,320H256
			v138.667c0,6.4-4.267,10.667-10.667,10.667H74.667c-6.4,0-10.667-4.267-10.667-10.667V320H53.333
			c-6.4,0-10.667-4.267-10.667-10.667c0-6.4,4.267-10.667,10.667-10.667h21.333h170.667h21.333c6.4,0,10.667,4.267,10.667,10.667
			C277.333,315.733,273.066,320,266.667,320z M330.667,469.333h-21.333c-6.4,0-10.667-4.267-10.667-10.667S302.934,448,309.333,448
			h21.333c6.4,0,10.667,4.267,10.667,10.667S337.066,469.333,330.667,469.333z M330.667,426.667h-21.333
			c-6.4,0-10.667-4.267-10.667-10.667c0-6.4,4.267-10.667,10.667-10.667h21.333c6.4,0,10.667,4.267,10.667,10.667
			C341.333,422.4,337.066,426.667,330.667,426.667z M330.667,384h-21.333c-6.4,0-10.667-4.267-10.667-10.667
			c0-6.4,4.267-10.667,10.667-10.667h21.333c6.4,0,10.667,4.267,10.667,10.667C341.333,379.733,337.066,384,330.667,384z
			 M394.667,469.333h-21.333c-6.4,0-10.667-4.267-10.667-10.667S366.934,448,373.333,448h21.333c6.4,0,10.667,4.267,10.667,10.667
			S401.066,469.333,394.667,469.333z M394.667,426.667h-21.333c-6.4,0-10.667-4.267-10.667-10.667c0-6.4,4.267-10.667,10.667-10.667
			h21.333c6.4,0,10.667,4.267,10.667,10.667C405.333,422.4,401.066,426.667,394.667,426.667z M394.667,384h-21.333
			c-6.4,0-10.667-4.267-10.667-10.667c0-6.4,4.267-10.667,10.667-10.667h21.333c6.4,0,10.667,4.267,10.667,10.667
			C405.333,379.733,401.066,384,394.667,384z M458.667,469.333h-21.333c-6.4,0-10.667-4.267-10.667-10.667S430.934,448,437.333,448
			h21.333c6.4,0,10.667,4.267,10.667,10.667S465.066,469.333,458.667,469.333z M458.667,426.667h-21.333
			c-6.4,0-10.667-4.267-10.667-10.667c0-6.4,4.267-10.667,10.667-10.667h21.333c6.4,0,10.667,4.267,10.667,10.667
			C469.333,422.4,465.066,426.667,458.667,426.667z M458.667,384h-21.333c-6.4,0-10.667-4.267-10.667-10.667
			c0-6.4,4.267-10.667,10.667-10.667h21.333c6.4,0,10.667,4.267,10.667,10.667C469.333,379.733,465.066,384,458.667,384z
			 M458.667,320h-44.8C409.6,332.8,396.8,341.333,384,341.333c-12.8,0-25.6-8.533-29.867-21.333h-44.8
			c-6.4,0-10.667-4.267-10.667-10.667c0-6.4,4.267-10.667,10.667-10.667h44.8c4.267-12.8,17.066-21.333,29.867-21.333
			c12.8,0,25.6,8.533,29.867,21.333h44.8c6.4,0,10.667,4.267,10.667,10.667C469.333,315.733,465.066,320,458.667,320z"/>
	</g>
</g>
<g>
</g>
<g>
</g>
<g>
</g>
<g>
</g>
<g>
</g>
<g>
</g>
<g>
</g>
<g>
</g>
<g>
</g>
<g>
</g>
<g>
</g>
<g>
</g>
<g>
</g>
<g>
</g>
<g>
</g>
</svg>
